<?xml version="1.0" standalone="no"?>
<!DOCTYPE svg PUBLIC "-//W3C//DTD SVG 20010904//EN"
 "http://www.w3.org/TR/2001/REC-SVG-20010904/DTD/svg10.dtd">
<svg version="1.0" xmlns="http://www.w3.org/2000/svg"
 width="16.000000pt" height="16.000000pt" viewBox="0 0 16.000000 16.000000"
 preserveAspectRatio="xMidYMid meet">
<metadata>
Created by potrace 1.11, written by Peter Selinger 2001-2013
</metadata>
<g transform="translate(0.000000,16.000000) scale(0.003200,-0.003200)"
fill="#000000" stroke="none">
<path d="M1819 4528 c-5 -19 -2 -118 4 -118 5 0 5 -6 1 -12 -11 -17 -11 -268
-1 -268 5 0 5 -6 0 -12 -10 -17 -10 -188 0 -188 5 0 5 -6 0 -12 -10 -18 -10
-308 1 -308 5 0 4 -6 -1 -12 -5 -7 -8 -52 -7 -100 1 -77 -1 -87 -17 -91 -11
-3 -19 -1 -19 5 0 5 -5 6 -11 2 -6 -4 -33 -7 -59 -7 -26 0 -53 3 -59 7 -6 4
-11 4 -11 -1 0 -10 -93 -8 -109 1 -6 4 -11 4 -11 -1 0 -8 -217 -9 -225 -1 -3
2 -29 1 -60 -2 -32 -4 -59 -2 -65 4 -6 6 -10 6 -10 1 0 -11 -92 -11 -109 -1
-6 4 -11 4 -11 -1 0 -4 -27 -8 -60 -8 -33 0 -60 4 -60 8 0 5 -5 5 -11 2 -12
-8 -168 -9 -176 -2 -3 3 -11 3 -19 0 -10 -4 -14 -24 -14 -73 l0 -69 220 2
c141 1 220 -2 220 -8 0 -7 3 -7 8 0 4 6 21 10 37 10 17 0 33 -4 37 -10 5 -7 8
-7 8 0 0 7 121 9 346 8 310 -1 348 1 363 16 14 14 16 72 16 626 l0 610 -67 3
c-38 2 -68 2 -69 0z"/>
<path d="M2092 3903 l3 -628 80 0 c44 0 83 -4 87 -10 5 -7 8 -7 8 0 0 6 16 10
35 10 19 0 35 -4 35 -10 0 -7 3 -7 8 0 4 6 83 10 200 10 121 0 192 -4 192 -10
0 -7 3 -7 8 0 4 6 21 10 37 10 17 0 33 -4 37 -10 5 -7 8 -7 8 0 0 6 84 9 237
8 131 -1 247 0 258 2 20 4 21 8 16 118 -1 16 -9 18 -58 17 -32 -1 -62 -1 -68
0 -11 1 -363 -1 -431 -3 -22 0 -45 3 -52 7 -7 4 -12 4 -12 -1 0 -10 -213 -8
-229 1 -6 4 -11 4 -11 -1 0 -4 -50 -8 -110 -8 -61 0 -110 3 -110 7 0 4 -7 5
-15 2 -9 -4 -15 0 -16 7 0 8 -1 260 -1 562 l0 547 -69 0 -69 0 2 -627z"/>
<path d="M756 3142 c-4 -7 -18 -10 -32 -8 -24 5 -24 3 -24 -65 0 -48 4 -69 13
-70 6 0 24 -2 40 -3 15 -1 27 2 27 5 0 4 14 4 30 -1 19 -5 30 -5 30 1 0 6 6 7
12 3 18 -11 48 -12 48 -2 0 5 4 7 9 3 17 -10 71 -13 77 -3 3 5 11 4 19 -2 7
-6 15 -7 18 -3 3 5 23 7 44 5 21 -1 44 -3 51 -2 27 0 38 0 67 -3 17 -1 35 1
42 6 6 4 14 3 18 -3 5 -8 11 -7 22 1 9 8 17 9 21 3 9 -11 72 -13 72 -1 0 4 6
5 13 0 16 -10 38 -10 60 0 9 4 17 4 17 0 0 -4 16 -8 35 -8 19 0 35 4 35 8 0 5
6 5 13 0 16 -10 38 -10 60 0 9 4 17 4 17 0 0 -4 16 -8 35 -8 19 0 35 4 35 8 0
5 6 5 13 0 16 -10 38 -10 60 0 10 4 17 4 17 -2 0 -5 8 -7 19 -4 24 6 29 -9 27
-85 -1 -34 2 -62 7 -62 4 0 5 -6 0 -12 -10 -17 -10 -188 0 -188 5 0 5 -6 1
-12 -11 -17 -11 -268 -1 -268 5 0 5 -6 0 -12 -10 -17 -10 -188 0 -188 5 0 5
-6 1 -12 -11 -17 -11 -268 -1 -268 5 0 5 -6 0 -12 -10 -18 -10 -148 1 -148 5
0 4 -6 -1 -12 -11 -15 -11 -77 0 -94 7 -12 126 -15 128 -4 1 3 2 344 3 758 1
684 0 753 -15 757 -9 3 -23 3 -32 0 -8 -4 -18 -1 -22 4 -3 6 -11 8 -18 4 -16
-10 -137 -11 -143 -1 -3 5 -10 5 -17 1 -16 -10 -137 -11 -143 -1 -3 5 -10 5
-17 1 -16 -10 -137 -11 -143 -1 -3 5 -11 5 -17 1 -18 -11 -616 -10 -620 2 -2
5 -7 4 -11 -3z"/>
<path d="M3303 3142 c-6 -4 -282 -7 -612 -6 l-601 1 0 -374 c0 -291 3 -373 13
-374 77 -8 196 -3 214 8 12 7 32 13 45 13 42 0 57 3 52 12 -5 7 19 13 40 9 5
-1 17 6 27 15 11 9 19 13 19 9 0 -4 8 -1 18 8 17 16 20 17 48 17 8 0 12 5 9
10 -3 6 3 10 14 10 12 0 21 5 21 10 0 6 9 10 20 10 11 0 23 6 26 14 3 8 12 12
19 10 8 -3 24 6 36 20 13 14 29 26 37 26 8 0 30 16 49 35 19 19 39 35 45 35 7
0 21 9 32 19 12 11 27 21 35 23 20 4 49 31 44 41 -2 4 6 7 18 7 12 0 29 8 38
19 9 10 26 21 39 25 12 4 22 12 22 17 0 5 7 9 16 9 8 0 12 5 9 10 -4 6 5 10
20 10 15 0 24 4 20 10 -6 9 -1 11 33 14 7 1 17 7 21 15 5 7 14 10 20 7 6 -4
14 0 17 9 4 9 13 14 21 11 7 -3 16 1 19 9 4 8 17 15 29 15 13 0 25 6 28 13 2
6 12 12 23 13 10 0 31 6 47 14 28 14 44 9 32 -9 -3 -6 -15 -11 -26 -11 -10 0
-19 -4 -19 -10 0 -5 -7 -10 -15 -10 -19 0 -56 -31 -49 -42 3 -4 -2 -5 -10 -2
-9 4 -26 -4 -40 -17 -14 -13 -30 -24 -35 -24 -14 0 -310 -293 -303 -300 3 -3
-2 -5 -12 -5 -9 0 -14 -4 -11 -10 3 -5 2 -10 -2 -10 -9 0 -149 -133 -145 -137
1 -2 -1 -3 -4 -2 -3 0 -17 -15 -32 -33 -18 -22 -35 -33 -50 -32 -12 1 -20 -1
-18 -4 8 -8 -51 -62 -69 -62 -8 0 -18 -6 -21 -14 -3 -8 -14 -13 -24 -11 -10 2
-21 -3 -24 -11 -3 -9 -10 -13 -15 -10 -5 4 -16 -1 -25 -10 -9 -8 -24 -14 -33
-13 -31 3 -44 -1 -39 -10 9 -13 -16 -20 -36 -10 -12 7 -20 4 -27 -8 -8 -15
-26 -18 -128 -18 l-118 0 -3 -58 c-3 -62 8 -87 36 -82 9 2 17 4 17 5 0 1 10 3
23 4 12 2 22 -1 22 -4 0 -8 56 -3 71 5 5 4 9 2 9 -2 0 -13 62 -8 89 7 14 7 39
13 55 14 17 1 38 6 46 11 8 5 22 10 31 10 9 0 22 5 30 11 8 6 22 10 31 9 10
-2 16 2 15 8 -1 6 8 13 21 15 13 2 26 10 29 18 3 8 9 11 15 8 5 -3 23 6 39 22
16 15 31 25 35 22 3 -4 27 16 53 43 26 27 53 49 60 49 15 0 132 117 135 135 2
17 215 230 230 230 7 0 42 31 79 68 37 37 72 65 77 62 5 -3 15 4 23 15 7 11
17 17 20 13 4 -3 7 -1 7 6 0 17 28 44 38 37 10 -6 52 30 52 44 0 5 7 7 16 3 9
-3 20 0 24 7 5 8 17 15 26 16 10 2 24 11 31 20 10 14 13 14 13 3 1 -11 4 -10
14 4 7 9 18 17 25 17 6 0 11 6 11 13 0 12 13 14 63 8 15 -2 -51 -61 -68 -61
-8 0 -18 -7 -21 -15 -4 -8 -13 -15 -21 -15 -8 0 -12 -3 -10 -7 4 -10 -90 -103
-97 -95 -3 3 -6 0 -6 -7 0 -6 -11 -22 -25 -35 -14 -13 -25 -29 -25 -36 0 -6
-20 -31 -45 -56 -25 -24 -45 -49 -45 -56 0 -7 -12 -24 -26 -37 -13 -13 -23
-29 -21 -35 2 -6 -7 -19 -20 -29 -13 -10 -23 -25 -23 -34 0 -9 -8 -23 -19 -32
-19 -17 -56 -81 -46 -81 3 0 -7 -14 -24 -32 -16 -17 -27 -37 -24 -45 3 -7 -2
-13 -11 -13 -9 0 -16 -6 -16 -13 0 -7 -9 -18 -20 -25 -11 -7 -20 -18 -20 -26
0 -18 -166 -186 -184 -186 -8 0 -28 -16 -45 -36 -18 -19 -37 -34 -43 -32 -6 2
-23 -9 -39 -25 -16 -15 -33 -26 -38 -23 -5 3 -12 -1 -15 -10 -3 -8 -10 -13
-16 -9 -5 3 -19 -3 -31 -13 -12 -12 -28 -18 -41 -14 -12 3 -24 -1 -29 -10 -5
-9 -19 -14 -34 -12 -15 1 -28 -3 -31 -11 -4 -9 -23 -12 -60 -11 -39 1 -54 -2
-54 -11 0 -10 -35 -13 -160 -13 l-160 0 0 -625 0 -625 220 0 c163 0 219 3 218
12 -2 8 17 11 60 11 41 -1 65 3 68 11 2 6 21 11 42 11 20 -1 44 5 53 12 8 7
30 11 48 9 21 -2 34 1 38 10 3 8 19 14 38 14 18 0 35 5 37 12 2 6 18 11 36 10
23 0 32 4 32 15 0 10 6 14 19 10 11 -3 22 0 24 7 3 6 17 12 31 14 15 1 34 9
43 18 13 13 17 13 24 2 8 -12 13 -4 10 14 0 5 7 8 18 8 10 0 24 7 31 15 7 8
16 13 20 10 5 -3 15 2 23 10 9 8 22 15 31 15 8 0 21 9 29 21 8 11 21 21 29 22
21 4 59 33 51 40 -3 4 3 7 14 7 22 0 83 53 83 73 0 9 3 8 9 -2 6 -9 11 -10 15
-2 4 6 13 8 19 5 7 -4 9 -4 5 1 -4 4 10 24 32 45 22 21 37 40 34 43 -3 3 3 3
15 0 14 -3 23 0 27 11 3 9 10 13 15 10 5 -3 9 2 9 11 0 9 5 13 10 10 6 -3 10
-1 10 4 0 15 37 51 44 43 3 -3 6 0 6 7 0 16 25 41 40 41 6 0 9 4 6 9 -4 5 -1
11 4 13 6 2 12 10 13 19 2 9 28 41 60 71 31 31 57 63 57 72 0 8 6 19 14 23 7
4 19 19 26 33 7 14 21 35 32 47 11 12 17 26 13 32 -3 6 -1 11 4 11 9 0 42 61
45 82 1 4 11 16 24 28 13 12 22 33 22 50 0 17 5 30 11 30 5 0 8 4 5 9 -3 5 1
14 9 21 8 7 15 18 15 26 0 7 7 20 16 28 8 9 13 20 9 26 -3 5 0 20 7 32 7 13
11 26 10 31 -1 4 3 7 10 7 9 0 9 3 0 12 -8 8 -6 17 8 36 11 13 17 28 14 33 -3
5 1 19 8 31 7 13 12 35 13 49 0 14 5 32 12 40 6 8 10 31 9 52 -2 20 3 45 10
55 7 9 14 41 14 70 0 40 4 52 15 52 13 0 15 32 13 253 -2 197 -6 251 -16 249
-9 -1 -12 12 -11 48 2 31 -3 56 -12 67 -10 12 -14 37 -13 73 2 31 -2 58 -8 61
-6 4 -12 18 -12 32 -1 14 -8 32 -15 40 -7 9 -10 20 -7 26 10 16 -23 19 -202
18 -96 -1 -176 1 -179 6 -2 4 -9 4 -16 0 -16 -10 -137 -11 -143 -1 -3 5 -10 5
-17 1 -16 -10 -137 -11 -143 -1 -3 4 -13 4 -22 0 -20 -10 -122 -10 -137 0 -6
4 -16 4 -22 0z m-964 -139 c6 6 11 7 11 1 0 -11 60 -12 77 -1 6 4 14 3 18 -3
4 -6 12 -7 18 -3 6 4 27 6 47 5 33 -2 44 -3 73 -2 6 1 27 -1 45 -3 18 -2 36 1
38 5 3 5 12 4 19 -2 9 -7 15 -8 19 -1 5 7 15 7 31 1 17 -6 25 -6 25 1 0 6 6 7
12 3 17 -11 48 -12 48 -3 0 5 10 5 23 1 27 -9 48 -9 65 1 7 5 12 3 12 -3 0 -6
5 -8 11 -5 13 9 69 13 69 6 0 -4 14 -6 30 -6 17 -1 30 3 30 7 0 4 7 5 15 2 8
-4 15 -10 15 -14 0 -7 -52 -31 -73 -34 -4 -1 -12 -7 -16 -15 -5 -7 -15 -11
-22 -9 -7 2 -24 -7 -37 -21 -14 -14 -28 -25 -33 -24 -11 4 -49 -29 -44 -37 2
-3 -5 -7 -17 -7 -11 -1 -30 -13 -42 -26 -12 -13 -27 -22 -32 -20 -6 2 -27 -14
-46 -35 -19 -21 -40 -36 -47 -34 -6 2 -21 -8 -32 -22 -11 -14 -24 -24 -28 -21
-5 2 -23 -9 -41 -25 -18 -16 -36 -27 -40 -25 -4 3 -13 -2 -20 -10 -7 -8 -16
-13 -20 -10 -4 3 -13 -2 -20 -10 -7 -8 -20 -15 -30 -15 -10 0 -20 -6 -23 -13
-3 -9 -16 -12 -35 -9 -16 2 -40 -2 -53 -10 -13 -8 -35 -14 -49 -12 -14 1 -31
-5 -37 -14 -7 -8 -16 -13 -19 -9 -4 3 -7 110 -8 237 l-1 231 30 8 c17 4 40 4
51 0 13 -4 26 -3 33 4z m1135 -24 c-3 -5 -10 -7 -15 -3 -5 3 -7 10 -3 15 3 5
10 7 15 3 5 -3 7 -10 3 -15z m596 6 c0 -8 7 -15 16 -15 14 0 14 -3 4 -15 -9
-11 -9 -15 -1 -15 7 0 9 -5 6 -10 -3 -6 0 -16 8 -24 9 -10 13 -32 10 -70 -2
-39 1 -58 10 -62 17 -6 18 -454 1 -475 -6 -8 -11 -45 -11 -82 0 -38 -5 -73
-12 -80 -6 -6 -11 -28 -11 -49 0 -22 -5 -41 -13 -44 -8 -3 -11 -17 -9 -38 2
-20 -2 -38 -11 -47 -7 -8 -12 -24 -11 -36 2 -11 -3 -26 -11 -33 -8 -7 -13 -16
-10 -20 3 -5 -4 -15 -16 -23 -12 -9 -16 -18 -10 -21 12 -7 4 -33 -16 -57 -7
-9 -10 -19 -6 -23 4 -4 1 -11 -7 -16 -7 -5 -15 -17 -16 -27 -2 -9 -8 -19 -13
-21 -6 -2 -11 -12 -11 -23 0 -10 -4 -19 -9 -19 -5 0 -11 -14 -15 -31 -4 -20
-10 -28 -17 -23 -7 4 -9 3 -6 -3 6 -10 -26 -63 -70 -116 -13 -16 -21 -33 -18
-37 3 -5 -5 -16 -17 -24 -12 -9 -18 -16 -13 -16 5 0 -1 -7 -13 -16 -12 -8 -22
-21 -22 -29 0 -8 -8 -19 -17 -24 -10 -6 -15 -11 -10 -11 4 0 -1 -8 -10 -18
-10 -11 -21 -17 -25 -15 -5 2 -8 -1 -8 -7 0 -15 -25 -40 -40 -40 -6 0 -9 -3
-7 -7 2 -5 -4 -16 -15 -26 -10 -9 -18 -14 -18 -11 0 4 -8 -4 -19 -17 -41 -53
-113 -117 -137 -123 -14 -4 -22 -11 -19 -16 3 -6 -1 -10 -10 -10 -9 0 -14 -4
-11 -9 3 -5 -11 -17 -32 -26 -20 -10 -45 -27 -54 -38 -10 -11 -24 -17 -33 -13
-9 3 -15 0 -15 -9 0 -13 -12 -17 -36 -14 -4 0 -14 -10 -23 -24 -9 -13 -24 -23
-33 -22 -9 2 -19 -4 -22 -12 -4 -9 -13 -13 -21 -9 -9 3 -18 -1 -22 -10 -3 -9
-13 -14 -24 -11 -11 3 -17 2 -14 -3 4 -7 -19 -22 -38 -24 -4 -1 -11 -6 -15
-11 -4 -6 -16 -10 -27 -10 -11 0 -28 -6 -37 -14 -10 -7 -29 -11 -42 -9 -14 3
-23 1 -20 -4 3 -4 -8 -11 -25 -14 -16 -4 -32 -12 -35 -19 -3 -8 -19 -12 -45
-10 -25 1 -42 -2 -45 -10 -3 -9 -22 -12 -55 -11 -35 1 -52 -3 -56 -12 -3 -10
-17 -13 -40 -10 -19 2 -35 0 -35 -6 0 -6 -5 -5 -11 1 -12 12 -59 -2 -59 -17 0
-9 -64 -5 -79 4 -6 4 -11 3 -11 -1 0 -10 -137 -10 -146 0 -9 8 -9 955 -1 964
4 3 41 7 84 8 99 2 105 3 99 14 -3 4 24 7 60 6 47 -1 67 2 71 12 3 7 16 13 30
13 13 0 21 4 18 10 -7 11 3 13 49 12 16 0 35 6 43 14 8 8 19 12 24 8 5 -3 12
1 15 9 3 8 13 14 21 13 9 -2 29 11 44 28 18 20 29 26 29 16 0 -10 5 -7 16 8 8
12 19 20 24 17 4 -3 27 13 50 35 23 22 46 38 50 35 4 -3 22 11 39 30 17 19 36
35 42 35 7 0 10 2 7 5 -3 3 29 39 70 81 41 41 72 77 69 80 -3 3 14 25 39 49
24 24 44 50 44 58 0 8 11 23 25 33 14 10 23 24 21 31 -3 7 5 19 17 28 12 8 18
15 13 15 -5 0 3 9 18 21 14 11 26 29 26 40 0 10 5 19 10 19 6 0 10 7 10 14 0
8 11 27 25 42 14 15 23 34 21 41 -3 7 1 13 9 13 8 0 15 7 15 16 0 8 4 13 9 10
5 -3 11 1 15 9 3 8 2 15 -3 15 -5 0 29 37 75 82 46 45 84 90 84 100 0 10 7 18
16 18 9 0 43 26 76 58 33 31 65 57 71 57 14 0 54 38 50 47 -2 3 6 4 16 1 13
-3 23 2 30 15 6 11 22 23 36 26 14 4 25 10 25 15 0 4 13 7 30 6 16 -1 31 4 34
12 7 18 26 17 26 -2z m-320 -20 c0 -8 -4 -15 -10 -15 -5 0 -10 7 -10 15 0 8 5
15 10 15 6 0 10 -7 10 -15z"/>
</g>
</svg>
