<?xml version="1.0" encoding="utf-8"?>
<!-- Generator: Adobe Illustrator 15.1.0, SVG Export Plug-In . SVG Version: 6.00 Build 0)  -->
<!DOCTYPE svg PUBLIC "-//W3C//DTD SVG 1.1//EN" "http://www.w3.org/Graphics/SVG/1.1/DTD/svg11.dtd">
<svg version="1.1" id="Layer_1" xmlns="http://www.w3.org/2000/svg" xmlns:xlink="http://www.w3.org/1999/xlink" x="0px" y="0px"
	 width="386.634px" height="429.648px" viewBox="0 0 386.634 429.648" enable-background="new 0 0 386.634 429.648"
	 xml:space="preserve">
<g>
	<path fill="#FFFFFF" d="M193.409,0.142c1.624,0,3.181-0.005,4.673-0.014s2.846-0.052,4.064-0.127
		c0.122,1.52,0.283,3.163,0.481,4.928c-0.303,0.038-0.6,0.038-0.893,0c-0.472-1.274-1.028-2.209-1.67-2.804
		c-0.643-0.595-1.667-0.892-3.073-0.892h-2.209v15.005c0,0.586,0.019,1.041,0.057,1.362c0.038,0.322,0.148,0.565,0.333,0.73
		c0.184,0.166,0.462,0.277,0.835,0.333c0.373,0.057,0.918,0.113,1.636,0.17c0.047,0.302,0.047,0.595,0,0.878
		c-0.774,0-1.577-0.009-2.407-0.028s-1.454-0.028-1.869-0.028c-0.425,0-1.045,0.009-1.862,0.028
		c-0.816,0.019-1.602,0.028-2.357,0.028c-0.047-0.274-0.047-0.562,0-0.864c0.699-0.066,1.237-0.125,1.614-0.177
		c0.377-0.052,0.658-0.149,0.843-0.291c0.184-0.142,0.297-0.35,0.34-0.625c0.042-0.274,0.063-0.662,0.063-1.163V1.232h-2.138
		c-1.444,0-2.48,0.297-3.108,0.892c-0.628,0.595-1.164,1.529-1.607,2.804c-0.292,0.038-0.59,0.038-0.892,0
		c0.246-1.765,0.444-3.403,0.595-4.914c1.218,0.066,2.554,0.104,4.007,0.113S191.833,0.142,193.409,0.142z"/>
	<path fill="#FFFFFF" d="M198.634,59.038c0-0.577-0.021-1.029-0.063-1.355c-0.043-0.326-0.151-0.57-0.326-0.73
		c-0.174-0.161-0.446-0.272-0.814-0.333s-0.869-0.121-1.501-0.177c-0.047-0.278-0.047-0.566,0-0.864c0.708,0,1.47,0.009,2.287,0.028
		c0.817,0.019,1.429,0.028,1.834,0.028c0.415,0,1.024-0.009,1.827-0.028c0.802-0.019,1.571-0.028,2.308-0.028
		c0.048,0.279,0.048,0.562,0,0.85c-0.661,0.066-1.175,0.127-1.544,0.184c-0.367,0.057-0.644,0.154-0.828,0.291
		c-0.184,0.137-0.297,0.343-0.34,0.617c-0.042,0.274-0.063,0.661-0.063,1.162v13.094c0,0.586,0.019,1.039,0.057,1.36
		s0.146,0.564,0.325,0.73c0.18,0.166,0.456,0.276,0.829,0.333c0.372,0.057,0.894,0.113,1.564,0.17c0.048,0.302,0.048,0.595,0,0.878
		c-0.745,0-1.529-0.009-2.351-0.028s-1.436-0.028-1.841-0.028c-0.415,0-1.017,0.009-1.806,0.028
		c-0.788,0.019-1.536,0.028-2.244,0.028c-0.047-0.274-0.047-0.562,0-0.864c0.632-0.066,1.13-0.125,1.494-0.176
		c0.363-0.052,0.632-0.148,0.807-0.29c0.175-0.141,0.283-0.348,0.326-0.621c0.042-0.273,0.063-0.659,0.063-1.158v-6.676h-10.479
		v6.324c0,0.583,0.019,1.035,0.057,1.355s0.146,0.563,0.326,0.727s0.453,0.275,0.821,0.332c0.368,0.057,0.883,0.113,1.543,0.169
		c0.047,0.302,0.047,0.595,0,0.878c-0.736,0-1.513-0.009-2.329-0.028c-0.817-0.019-1.428-0.028-1.834-0.028
		c-0.416,0-1.024,0.009-1.827,0.028s-1.563,0.028-2.28,0.028c-0.047-0.274-0.047-0.562,0-0.864c0.642-0.066,1.149-0.125,1.522-0.177
		c0.373-0.052,0.649-0.148,0.828-0.29s0.29-0.35,0.333-0.624c0.042-0.274,0.063-0.662,0.063-1.163V59.035
		c0-0.576-0.021-1.027-0.063-1.353c-0.043-0.326-0.154-0.569-0.333-0.73s-0.458-0.271-0.835-0.333s-0.892-0.121-1.543-0.177
		c-0.047-0.278-0.047-0.566,0-0.864c0.727,0,1.506,0.009,2.336,0.028s1.449,0.028,1.855,0.028c0.416,0,1.024-0.009,1.827-0.028
		s1.567-0.028,2.294-0.028c0.047,0.279,0.047,0.562,0,0.85c-0.661,0.066-1.173,0.128-1.537,0.185
		c-0.363,0.057-0.637,0.153-0.821,0.291c-0.184,0.137-0.297,0.343-0.34,0.617c-0.042,0.274-0.063,0.662-0.063,1.163v5.561h10.479
		V59.038z"/>
	<path fill="#FFFFFF" d="M189.465,111.169c1.34,0,3.146-0.005,5.416-0.014c2.271-0.009,3.92-0.023,4.949-0.042
		c0.16,1.34,0.363,2.818,0.609,4.432c-0.303,0.038-0.6,0.038-0.893,0c-0.481-1.124-1.053-1.947-1.713-2.471
		c-0.661-0.523-1.713-0.786-3.158-0.786h-3.852v7.689h1.756c0.67,0,1.218-0.028,1.643-0.084s0.77-0.185,1.034-0.386
		c0.264-0.201,0.465-0.5,0.602-0.898c0.137-0.397,0.252-0.938,0.347-1.62c0.312-0.047,0.618-0.047,0.92,0
		c-0.009,0.461-0.021,1.027-0.036,1.7c-0.014,0.672-0.021,1.319-0.021,1.939c0,0.63,0.007,1.284,0.021,1.961
		c0.015,0.677,0.026,1.25,0.036,1.721c-0.283,0.038-0.585,0.038-0.906,0c-0.094-0.729-0.21-1.303-0.347-1.719
		c-0.137-0.417-0.33-0.728-0.58-0.934c-0.25-0.206-0.571-0.334-0.963-0.386c-0.392-0.051-0.89-0.077-1.494-0.077h-2.011v6.111
		c0,1.27,0.019,2.027,0.057,2.272h4.05c1.803,0,3.044-0.321,3.724-0.963s1.317-1.595,1.912-2.86c0.283-0.047,0.571-0.047,0.863,0
		c-0.396,2.077-0.67,3.748-0.82,5.013c-1.841-0.009-3.708-0.019-5.601-0.028c-1.893-0.009-3.712-0.014-5.459-0.014
		c-0.406,0-1.026,0.009-1.862,0.028c-0.835,0.019-1.616,0.028-2.343,0.028c-0.047-0.274-0.047-0.562,0-0.864
		c0.661-0.066,1.168-0.125,1.522-0.177c0.354-0.052,0.619-0.149,0.793-0.291c0.175-0.142,0.283-0.35,0.326-0.624
		c0.042-0.274,0.063-0.662,0.063-1.163v-13.094c0-0.576-0.021-1.027-0.063-1.353c-0.043-0.326-0.151-0.569-0.326-0.73
		c-0.174-0.161-0.443-0.271-0.807-0.333c-0.364-0.062-0.866-0.121-1.508-0.177c-0.047-0.278-0.047-0.566,0-0.864
		c0.717,0,1.484,0.009,2.301,0.028C188.462,111.16,189.069,111.169,189.465,111.169z"/>
</g>
<g>
	<path fill="#FFFFFF" d="M193.076,243.475c1.624,0,3.181-0.005,4.673-0.014s2.846-0.052,4.064-0.127
		c0.122,1.52,0.283,3.163,0.48,4.928c-0.302,0.038-0.6,0.038-0.892,0c-0.472-1.274-1.028-2.209-1.671-2.804
		c-0.642-0.595-1.666-0.892-3.073-0.892h-2.209v15.005c0,0.586,0.019,1.041,0.057,1.362c0.038,0.322,0.148,0.565,0.333,0.73
		c0.184,0.166,0.462,0.277,0.835,0.333c0.373,0.057,0.918,0.113,1.636,0.17c0.047,0.302,0.047,0.595,0,0.878
		c-0.774,0-1.577-0.009-2.407-0.028s-1.454-0.028-1.869-0.028c-0.425,0-1.045,0.009-1.862,0.028
		c-0.816,0.019-1.602,0.028-2.357,0.028c-0.047-0.274-0.047-0.562,0-0.864c0.699-0.066,1.237-0.125,1.614-0.177
		c0.377-0.052,0.658-0.149,0.843-0.291c0.184-0.142,0.297-0.35,0.34-0.625c0.042-0.274,0.063-0.662,0.063-1.163v-15.36h-2.138
		c-1.444,0-2.48,0.297-3.108,0.892c-0.628,0.595-1.164,1.529-1.607,2.804c-0.292,0.038-0.59,0.038-0.892,0
		c0.246-1.765,0.444-3.403,0.595-4.914c1.218,0.066,2.554,0.104,4.007,0.113S191.499,243.475,193.076,243.475z"/>
	<path fill="#FFFFFF" d="M192.637,310.904c-0.17-0.246-0.328-0.444-0.475-0.595c-0.146-0.151-0.299-0.271-0.46-0.361
		c-0.161-0.089-0.333-0.153-0.517-0.191c-0.185-0.038-0.395-0.071-0.63-0.099l-0.835-0.085v5.537c0,0.585,0.019,1.039,0.057,1.359
		s0.142,0.564,0.312,0.729c0.17,0.166,0.43,0.276,0.779,0.333s0.859,0.113,1.529,0.17c0.047,0.302,0.047,0.595,0,0.878
		c-0.774,0-1.577-0.009-2.407-0.028s-1.449-0.028-1.855-0.028c-0.396,0-0.982,0.009-1.756,0.028s-1.52,0.028-2.237,0.028
		c-0.047-0.274-0.047-0.562,0-0.864c0.68-0.066,1.204-0.125,1.572-0.177c0.368-0.052,0.642-0.148,0.821-0.29s0.292-0.35,0.34-0.624
		s0.071-0.662,0.071-1.163v-13.123c0-0.567-0.023-1.013-0.071-1.339c-0.047-0.326-0.161-0.569-0.34-0.73s-0.458-0.271-0.835-0.333
		s-0.897-0.116-1.558-0.163c-0.047-0.278-0.047-0.566,0-0.864c0.736,0,1.522,0.009,2.357,0.028c0.836,0.019,1.457,0.028,1.862,0.028
		c0.331,0,0.923-0.014,1.777-0.042c0.854-0.028,1.55-0.042,2.088-0.042c2.124,0,3.783,0.43,4.977,1.289
		c1.194,0.859,1.792,2.11,1.792,3.752c0,1.17-0.385,2.214-1.154,3.129c-0.77,0.916-1.891,1.609-3.363,2.082v0.042
		c0.161,0.133,0.316,0.289,0.467,0.469c0.151,0.18,0.321,0.402,0.51,0.667l2.945,4.262c0.321,0.464,0.604,0.859,0.85,1.186
		c0.245,0.327,0.474,0.599,0.687,0.817c0.213,0.218,0.423,0.396,0.631,0.533c0.207,0.138,0.43,0.244,0.665,0.32
		s0.503,0.135,0.8,0.178s0.645,0.083,1.041,0.121c0.047,0.292,0.047,0.575,0,0.85c-0.699,0-1.418-0.007-2.16-0.021
		c-0.74-0.014-1.305-0.021-1.691-0.021c-0.406,0-0.869,0.009-1.388,0.028L192.637,310.904z M189.72,308.427
		c0.557,0.094,1.081,0.141,1.572,0.141c1.425,0,2.558-0.39,3.398-1.171c0.84-0.781,1.26-1.839,1.26-3.176
		c0-1.393-0.387-2.441-1.161-3.147s-1.912-1.059-3.413-1.059c-0.519,0-1.071,0.038-1.657,0.113V308.427z"/>
	<path fill="#FFFFFF" d="M189.161,366.765l-1.402,3.874c-0.132,0.359-0.231,0.664-0.297,0.916c-0.066,0.25-0.099,0.466-0.099,0.645
		c0,0.199,0.045,0.357,0.135,0.477c0.089,0.117,0.233,0.213,0.432,0.283c0.198,0.071,0.453,0.128,0.765,0.17
		c0.312,0.043,0.689,0.088,1.133,0.135c0.047,0.297,0.047,0.58,0,0.85c-0.453,0-1.071-0.009-1.855-0.027
		c-0.784-0.02-1.407-0.029-1.869-0.029c-0.547,0-1.06,0.01-1.537,0.029c-0.477,0.019-0.993,0.027-1.55,0.027
		c-0.047-0.278-0.047-0.566,0-0.863c0.34-0.037,0.637-0.076,0.892-0.113s0.481-0.097,0.68-0.178c0.198-0.08,0.373-0.186,0.524-0.318
		s0.297-0.309,0.439-0.531s0.286-0.503,0.432-0.844c0.146-0.34,0.31-0.75,0.489-1.232l6.061-15.545
		c0.387-0.133,0.784-0.208,1.189-0.227l5.976,16.026c0.255,0.681,0.467,1.207,0.637,1.58c0.17,0.374,0.361,0.654,0.574,0.843
		c0.213,0.189,0.477,0.313,0.793,0.369s0.748,0.113,1.295,0.17c0.048,0.297,0.048,0.585,0,0.863c-0.65,0-1.324-0.009-2.018-0.027
		c-0.693-0.02-1.375-0.029-2.046-0.029c-0.576,0-1.227,0.01-1.954,0.029c-0.727,0.019-1.411,0.027-2.053,0.027
		c-0.047-0.27-0.047-0.553,0-0.85c0.453-0.047,0.835-0.09,1.147-0.127c0.312-0.038,0.564-0.088,0.757-0.149
		c0.194-0.062,0.333-0.142,0.418-0.241s0.127-0.234,0.127-0.404c0-0.143-0.028-0.314-0.085-0.518s-0.137-0.447-0.241-0.731
		l-1.586-4.328H189.161z M189.585,365.604h5.452l-2.733-7.448L189.585,365.604z"/>
	<path fill="#FFFFFF" d="M185.542,409.98c0.736,0,1.52,0.01,2.351,0.028s1.449,0.028,1.855,0.028c0.331,0,0.92-0.017,1.77-0.05
		c0.85-0.032,1.543-0.05,2.082-0.05c2.115,0,3.767,0.439,4.956,1.317c1.189,0.878,1.785,2.138,1.785,3.78
		c0,1.851-0.607,3.293-1.82,4.326c-1.213,1.034-2.83,1.551-4.85,1.551c-0.831,0-1.685-0.094-2.563-0.283v5.551
		c0,0.586,0.021,1.039,0.063,1.359c0.043,0.32,0.161,0.564,0.354,0.729c0.193,0.165,0.483,0.276,0.871,0.333s0.958,0.113,1.713,0.17
		c0.047,0.302,0.047,0.594,0,0.877c-0.802,0-1.633-0.009-2.492-0.027c-0.859-0.02-1.501-0.029-1.926-0.029
		c-0.416,0-1.024,0.01-1.827,0.029c-0.802,0.019-1.577,0.027-2.322,0.027c-0.047-0.273-0.047-0.561,0-0.863
		c0.68-0.066,1.204-0.125,1.572-0.177s0.642-0.149,0.821-0.29c0.179-0.143,0.29-0.35,0.333-0.624
		c0.042-0.274,0.063-0.661,0.063-1.163v-13.094c0-0.576-0.021-1.027-0.063-1.354c-0.043-0.326-0.154-0.568-0.333-0.729
		s-0.458-0.271-0.835-0.333s-0.897-0.121-1.558-0.178C185.495,410.566,185.495,410.277,185.542,409.98z M191.107,419.539
		c0.661,0.15,1.274,0.227,1.841,0.227c1.34,0,2.391-0.416,3.15-1.246c0.76-0.831,1.14-1.879,1.14-3.145
		c0-1.368-0.38-2.433-1.14-3.192c-0.76-0.761-1.881-1.14-3.363-1.14c-0.51,0-1.053,0.037-1.628,0.113V419.539z"/>
</g>
<g>
	<path fill="#FFFFFF" d="M8.025,169.471c1.258,0,2.52-0.022,3.787-0.068c1.267-0.045,2.529-0.068,3.787-0.068
		c7,0,12.323,1.531,15.969,4.594c3.646,3.063,5.469,7.629,5.469,13.699c0,5.925-2.019,10.696-6.057,14.314
		c-4.038,3.619-9.046,5.428-15.025,5.428c-1.714,0-3.186-0.023-4.416-0.068s-2.347-0.068-3.35-0.068
		c-0.784,0-1.982,0.019-3.596,0.055s-3.122,0.055-4.525,0.055c-0.091-0.528-0.091-1.084,0-1.668
		c1.276-0.127,2.256-0.241,2.939-0.342s1.194-0.288,1.531-0.561c0.337-0.273,0.547-0.675,0.629-1.204
		c0.082-0.529,0.123-1.277,0.123-2.244v-25.286c0-1.113-0.041-1.984-0.123-2.613s-0.292-1.099-0.629-1.409
		c-0.337-0.31-0.857-0.524-1.559-0.643c-0.702-0.119-1.673-0.233-2.912-0.342c-0.091-0.538-0.091-1.093,0-1.668
		c1.385,0,2.866,0.019,4.443,0.055C6.088,169.453,7.26,169.471,8.025,169.471z M10.65,171.795v28.828
		c0,1.802,0.018,3.067,0.055,3.795c1.786,0.473,3.673,0.709,5.66,0.709c4.557,0,8.148-1.533,10.773-4.6s3.938-7.112,3.938-12.135
		c0-5.387-1.372-9.536-4.115-12.448c-2.744-2.912-6.768-4.368-12.072-4.368C13.758,171.577,12.346,171.65,10.65,171.795z"/>
	<path fill="#FFFFFF" d="M83.119,169.471c2.588,0,6.075-0.009,10.459-0.027c4.384-0.018,7.569-0.045,9.557-0.082
		c0.31,2.589,0.702,5.441,1.176,8.559c-0.583,0.073-1.158,0.073-1.723,0c-0.93-2.169-2.033-3.76-3.309-4.771
		c-1.276-1.012-3.309-1.518-6.098-1.518h-7.438v14.848h3.391c1.294,0,2.352-0.054,3.172-0.163c0.82-0.108,1.485-0.356,1.996-0.745
		c0.51-0.388,0.897-0.966,1.162-1.733c0.264-0.768,0.487-1.811,0.67-3.129c0.602-0.091,1.194-0.091,1.777,0
		c-0.019,0.89-0.041,1.984-0.068,3.283c-0.027,1.298-0.041,2.547-0.041,3.745c0,1.217,0.014,2.479,0.041,3.786
		c0.027,1.308,0.05,2.416,0.068,3.323c-0.547,0.073-1.13,0.073-1.75,0c-0.183-1.409-0.406-2.515-0.67-3.319
		c-0.265-0.804-0.638-1.405-1.121-1.802c-0.483-0.397-1.103-0.646-1.859-0.745c-0.757-0.099-1.718-0.149-2.885-0.149h-3.883v11.8
		c0,2.453,0.036,3.915,0.109,4.387h7.82c3.481,0,5.879-0.62,7.191-1.859c1.313-1.239,2.543-3.081,3.691-5.523
		c0.547-0.091,1.103-0.091,1.668,0c-0.766,4.011-1.294,7.237-1.586,9.68c-3.555-0.018-7.16-0.036-10.814-0.055
		c-3.655-0.018-7.169-0.027-10.541-0.027c-0.784,0-1.982,0.019-3.596,0.055s-3.122,0.055-4.525,0.055
		c-0.091-0.528-0.091-1.084,0-1.668c1.276-0.127,2.256-0.241,2.939-0.342s1.194-0.288,1.531-0.561
		c0.337-0.273,0.547-0.675,0.629-1.204c0.082-0.529,0.123-1.277,0.123-2.244v-25.286c0-1.113-0.041-1.984-0.123-2.613
		s-0.292-1.099-0.629-1.409c-0.337-0.31-0.857-0.524-1.559-0.643c-0.702-0.119-1.673-0.233-2.912-0.342
		c-0.091-0.538-0.091-1.093,0-1.668c1.385,0,2.866,0.019,4.443,0.055C81.182,169.453,82.354,169.471,83.119,169.471z"/>
	<path fill="#FFFFFF" d="M161.904,200.178l9.406-24.09c0.255-0.692,0.46-1.276,0.615-1.75c0.155-0.474,0.232-0.884,0.232-1.23
		c0-0.346-0.091-0.633-0.273-0.861c-0.183-0.228-0.483-0.415-0.902-0.561c-0.419-0.146-0.962-0.269-1.627-0.369
		c-0.666-0.1-1.481-0.196-2.447-0.287c-0.091-0.583-0.091-1.139,0-1.668c0.93,0,2.196,0.019,3.801,0.055
		c1.604,0.037,2.88,0.055,3.828,0.055c1.13,0,2.183-0.018,3.158-0.055c0.975-0.036,2.037-0.055,3.186-0.055
		c0.091,0.547,0.091,1.112,0,1.695c-1.058,0.109-1.914,0.232-2.57,0.369s-1.222,0.406-1.695,0.807
		c-0.474,0.401-0.921,0.994-1.34,1.777c-0.419,0.784-0.912,1.869-1.477,3.254l-12.305,29.996c-0.784,0.255-1.577,0.401-2.379,0.438
		l-11.758-30.949c-0.328-0.875-0.615-1.614-0.861-2.216s-0.488-1.104-0.725-1.505c-0.237-0.401-0.488-0.716-0.752-0.944
		c-0.265-0.228-0.579-0.411-0.943-0.547c-0.365-0.137-0.793-0.237-1.285-0.301s-1.094-0.132-1.805-0.206
		c-0.091-0.573-0.091-1.129,0-1.668c1.294,0,2.629,0.019,4.006,0.055c1.376,0.037,2.729,0.055,4.061,0.055
		c1.13,0,2.415-0.018,3.855-0.055c1.44-0.036,2.798-0.055,4.074-0.055c0.091,0.521,0.091,1.068,0,1.641
		c-0.966,0.073-1.777,0.151-2.434,0.233s-1.185,0.187-1.586,0.315c-0.401,0.127-0.693,0.292-0.875,0.493
		c-0.183,0.201-0.273,0.465-0.273,0.793c0,0.274,0.059,0.603,0.178,0.985c0.118,0.383,0.278,0.84,0.479,1.369L161.904,200.178z"/>
	<path fill="#FFFFFF" d="M225.185,175.354v25.286c0,1.131,0.036,2.007,0.109,2.627c0.073,0.62,0.282,1.09,0.629,1.409
		c0.347,0.32,0.87,0.534,1.572,0.644s1.728,0.219,3.076,0.328c0.091,0.583,0.091,1.148,0,1.695c-1.477,0-3.003-0.019-4.58-0.055
		s-2.757-0.055-3.541-0.055c-0.802,0-1.978,0.019-3.527,0.055s-3.044,0.055-4.484,0.055c-0.091-0.528-0.091-1.084,0-1.668
		c1.313-0.127,2.324-0.241,3.035-0.342s1.239-0.288,1.586-0.561s0.561-0.675,0.643-1.204c0.082-0.529,0.123-1.277,0.123-2.244
		v-25.286c0-1.113-0.041-1.984-0.123-2.613s-0.296-1.099-0.643-1.409s-0.884-0.524-1.613-0.643s-1.731-0.233-3.008-0.342
		c-0.091-0.538-0.091-1.093,0-1.668c1.422,0,2.935,0.019,4.539,0.055c1.604,0.037,2.798,0.055,3.582,0.055
		c0.802,0,1.978-0.018,3.527-0.055c1.55-0.036,3.044-0.055,4.484-0.055c0.091,0.539,0.091,1.085,0,1.641
		c-1.313,0.128-2.319,0.247-3.021,0.356s-1.23,0.296-1.586,0.561c-0.355,0.264-0.574,0.661-0.656,1.19
		C225.226,173.639,225.185,174.387,225.185,175.354z"/>
	<path fill="#FFFFFF" d="M277.83,175.354v25.286c0,2.463,0.036,3.932,0.109,4.406h8.039c3.063,0,5.254-0.624,6.576-1.873
		c1.321-1.249,2.611-3.322,3.869-6.221c0.547-0.091,1.103-0.091,1.668,0c-0.875,4.466-1.459,7.921-1.75,10.363
		c-3.519-0.018-7.014-0.036-10.486-0.055c-3.473-0.018-6.969-0.027-10.486-0.027c-0.784,0-1.982,0.019-3.596,0.055
		s-3.122,0.055-4.525,0.055c-0.092-0.528-0.092-1.084,0-1.668c1.275-0.127,2.256-0.241,2.939-0.342s1.193-0.288,1.531-0.561
		c0.337-0.273,0.547-0.675,0.629-1.204c0.082-0.529,0.123-1.277,0.123-2.244v-25.286c0-1.113-0.041-1.984-0.123-2.613
		s-0.292-1.099-0.629-1.409c-0.338-0.31-0.857-0.524-1.559-0.643c-0.702-0.119-1.673-0.233-2.912-0.342
		c-0.092-0.538-0.092-1.093,0-1.668c1.385,0,2.866,0.019,4.443,0.055c1.576,0.037,2.748,0.055,3.514,0.055
		c0.802,0,1.978-0.018,3.527-0.055c1.549-0.036,3.044-0.055,4.484-0.055c0.091,0.539,0.091,1.085,0,1.641
		c-1.313,0.128-2.32,0.247-3.021,0.356c-0.702,0.109-1.23,0.296-1.586,0.561c-0.355,0.264-0.574,0.661-0.656,1.19
		C277.871,173.639,277.83,174.387,277.83,175.354z"/>
	<path fill="#FFFFFF" d="M319.827,174.557c-0.273,0.255-0.57,0.438-0.889,0.547c-0.319,0.109-0.634,0.164-0.943,0.164
		c-0.365,0-0.716-0.073-1.053-0.219c-0.338-0.146-0.639-0.346-0.902-0.602c-0.265-0.255-0.475-0.565-0.629-0.93
		c-0.155-0.364-0.232-0.756-0.232-1.176c0-0.492,0.096-0.948,0.287-1.367c0.191-0.419,0.451-0.779,0.779-1.08
		s0.706-0.538,1.135-0.711c0.428-0.173,0.889-0.26,1.381-0.26c0.747,0,1.403,0.155,1.969,0.465c0.564,0.31,1.034,0.725,1.408,1.244
		c0.373,0.52,0.656,1.117,0.848,1.791c0.191,0.675,0.287,1.376,0.287,2.105c0,1.003-0.142,1.987-0.424,2.953
		c-0.283,0.966-0.721,1.882-1.313,2.748c-0.593,0.866-1.34,1.659-2.242,2.379c-0.902,0.72-1.974,1.335-3.213,1.846l-0.82-1.422
		c0.766-0.328,1.463-0.725,2.092-1.189s1.166-0.975,1.613-1.531c0.446-0.556,0.793-1.139,1.039-1.75
		c0.246-0.61,0.369-1.235,0.369-1.873C320.374,175.943,320.191,175.232,319.827,174.557z"/>
	<path fill="#FFFFFF" d="M364.103,195.995c0.711,3.3,1.854,5.783,3.432,7.451c1.576,1.668,3.76,2.502,6.549,2.502
		c2.15,0,3.933-0.658,5.346-1.976c1.412-1.317,2.119-3.002,2.119-5.055c0-1.253-0.251-2.33-0.752-3.229
		c-0.502-0.899-1.172-1.681-2.01-2.344c-0.839-0.663-1.791-1.244-2.857-1.744c-1.066-0.499-2.165-0.985-3.295-1.458
		c-1.203-0.51-2.379-1.043-3.527-1.6c-1.148-0.556-2.179-1.23-3.09-2.023c-0.912-0.793-1.65-1.736-2.215-2.83
		c-0.565-1.094-0.848-2.434-0.848-4.02c0-3.172,1.135-5.774,3.404-7.807c2.27-2.032,5.272-3.049,9.01-3.049
		c1.367,0,2.844,0.128,4.43,0.383c1.586,0.255,2.725,0.383,3.418,0.383c0.492,0,0.966-0.036,1.422-0.109
		c0.072,3.172,0.255,6.572,0.547,10.199c-0.656,0.128-1.23,0.164-1.723,0.109c-0.787-3.098-1.815-5.349-3.087-6.753
		s-3.069-2.106-5.392-2.106c-2.178,0-3.925,0.577-5.241,1.73c-1.317,1.153-1.976,2.656-1.976,4.509c0,1.217,0.251,2.257,0.754,3.119
		c0.503,0.863,1.17,1.612,2.002,2.248s1.782,1.194,2.853,1.675c1.069,0.481,2.171,0.958,3.304,1.43
		c1.226,0.529,2.432,1.076,3.62,1.641c1.188,0.565,2.253,1.258,3.194,2.078c0.942,0.82,1.701,1.81,2.276,2.967
		c0.576,1.158,0.864,2.566,0.864,4.225c0,3.5-1.23,6.294-3.691,8.381c-2.461,2.087-5.605,3.131-9.434,3.131
		c-1.495,0-3.354-0.173-5.578-0.52c-2.225-0.346-3.901-0.556-5.031-0.629c-0.055-3.063-0.219-6.681-0.492-10.855
		C362.991,195.977,363.556,195.958,364.103,195.995z"/>
</g>
<g id="Original_Text" display="none">
	
		<text transform="matrix(1 0 0 1 193.395 -4.6016)" display="inline" fill="#FFFFFF" font-family="'SBLBibLit'" font-size="29" glyph-orientation-vertical="0" writing-mode="tb" letter-spacing="26">THE</text>
	
		<text transform="matrix(1 0 0 1 193.0615 238.7314)" display="inline" fill="#FFFFFF" font-family="'SBLBibLit'" font-size="29" glyph-orientation-vertical="0" writing-mode="tb" letter-spacing="26">TRAP</text>
	<text transform="matrix(1 0 0 1 -1.2715 207.3149)" display="inline"><tspan x="0" y="0" fill="#FFFFFF" font-family="'SBLBibLit'" font-size="56" letter-spacing="34">DEVI</tspan><tspan x="267.179" y="0" fill="#FFFFFF" font-family="'SBLBibLit'" font-size="56" letter-spacing="17">L</tspan><tspan x="317.269" y="0" fill="#FFFFFF" font-family="'SBLBibLit'" font-size="56" letter-spacing="34">’S</tspan></text>
</g>
</svg>
